<svg width="200" height="200" viewBox="0 0 16 15" fill="none" xmlns="http://www.w3.org/2000/svg">
<path d="M13.223 0.224067C13.7018 0.224067 14.1263 0.362769 14.4963 0.640175C14.8881 0.917591 15.084 1.31236 15.084 1.8245C15.084 2.18727 14.9534 2.51803 14.6923 2.81678C14.4528 3.09419 14.148 3.27557 13.7781 3.36092C13.691 3.61695 13.5168 4.05444 13.2556 4.67328C12.9945 5.29212 12.6788 5.98563 12.3088 6.75382C11.9605 7.52211 11.5796 8.33297 11.1661 9.18651C10.7525 10.0188 10.3498 10.787 9.95804 11.4912C9.58798 12.1954 9.25067 12.7929 8.9459 13.2837C8.64114 13.7745 8.42356 14.0519 8.29287 14.1159C8.0753 14.2226 7.84667 14.2759 7.6073 14.2759C7.30254 14.2759 7.03052 14.2012 6.79104 14.0519C6.66046 13.9665 6.45363 13.6784 6.17066 13.1877C5.90949 12.6969 5.60483 12.11 5.25657 11.4272C4.93 10.723 4.58174 9.9548 4.21178 9.1225C3.84172 8.2903 3.48261 7.49011 3.13435 6.72182C2.80778 5.95363 2.51397 5.26011 2.2528 4.64127C1.99163 4.02244 1.79565 3.56366 1.66506 3.2649C1.27331 3.22222 0.892399 3.11553 0.522339 2.94482C0.174078 2.75276 0 2.41133 0 1.92054C0 1.45107 0.184927 1.07763 0.554987 0.800224C0.925047 0.522808 1.37125 0.320088 1.89359 0.192053C2.41603 0.0640176 2.93837 0 3.46081 0C4.00495 0 4.44031 0.0426818 4.76677 0.128035C4.87566 0.0853636 4.99529 0.0746854 5.12588 0.0960315C5.27826 0.0960315 5.40885 0.0960315 5.51774 0.0960315C5.77891 0.0960315 6.04007 0.117367 6.30135 0.160049C6.58432 0.20272 6.83454 0.288084 7.05221 0.416119C7.29169 0.522808 7.48756 0.682857 7.63995 0.896245C7.79233 1.0883 7.86847 1.3337 7.86847 1.63245C7.86847 1.95254 7.74874 2.24062 7.50937 2.49669C7.29169 2.75276 7.04137 2.94482 6.7584 3.07285C7.12846 3.79841 7.47672 4.50259 7.80318 5.18544C8.12964 5.86829 8.5215 6.55113 8.97855 7.23398C9.30501 6.57247 9.59893 5.90029 9.8601 5.21744C10.1213 4.51326 10.3716 3.81975 10.6111 3.13687C10.2628 3.07285 9.91455 2.93415 9.56629 2.72075C9.23972 2.48602 9.07649 2.16594 9.07649 1.76049C9.07649 1.39772 9.18538 1.12031 9.40295 0.928259C9.62063 0.714861 9.8819 0.56549 10.1866 0.480137C10.5131 0.373437 10.8504 0.30942 11.1987 0.288084C11.547 0.266738 11.8517 0.25607 12.1129 0.25607L13.223 0.224067ZM9.66422 9.37863C9.16358 9.67733 8.64114 9.99747 8.097 10.3388C7.57466 10.6803 7.08486 11.0324 6.62781 11.3952L6.7584 11.6832C7.17195 11.3845 7.5855 11.107 7.99906 10.851C8.41261 10.5735 8.84797 10.3282 9.30501 10.1148L9.66422 9.37863ZM3.29758 3.90509C3.40637 3.77707 3.60225 3.58499 3.88522 3.32892C4.16818 3.05151 4.45115 2.7741 4.73412 2.49669C5.03889 2.21928 5.31091 1.97387 5.55038 1.76049C5.78975 1.52575 5.93129 1.37638 5.97478 1.31236L5.64832 1.28035C5.21297 1.66447 4.79941 2.05924 4.40766 2.46468C4.0158 2.87013 3.60224 3.27557 3.167 3.68106L3.23229 3.74507L3.29758 3.90509ZM10.3171 8.03417C10.2737 8.07695 10.1975 8.13029 10.0886 8.19429C9.97984 8.2583 9.8601 8.33298 9.72952 8.41832C9.62063 8.50366 9.51184 8.57834 9.40295 8.64234C9.29416 8.68501 9.22887 8.70645 9.20707 8.70645L9.07649 8.80246H9.0112C8.55415 9.10116 8.097 9.41064 7.63995 9.73067C7.1828 10.0295 6.74755 10.3602 6.334 10.723L6.36664 10.851C6.97607 10.3815 7.59635 9.9548 8.22758 9.57065C8.88061 9.18651 9.52269 8.78113 10.1539 8.35431L10.3171 8.03417ZM7.34613 6.91394C6.91078 7.08463 6.54072 7.32999 6.23606 7.65013C5.93129 7.97016 5.58303 8.2263 5.19127 8.41832L5.32186 8.67435C5.38715 8.65301 5.46329 8.59967 5.55038 8.51433C5.85505 8.27964 6.18161 8.06628 6.52987 7.87415C6.87813 7.6608 7.2046 7.426 7.50937 7.16997L7.47672 7.07396L7.34613 6.91394ZM6.00743 4.35324C5.70276 4.63061 5.38715 4.90807 5.06058 5.18544C4.75592 5.4628 4.45115 5.75094 4.14649 6.04964L4.24443 6.30577C4.5274 6.0283 4.84301 5.75094 5.19127 5.47347C5.53954 5.19611 5.87684 4.96141 6.20341 4.76929L6.00743 4.35324ZM4.93 7.90616C5.30006 7.67146 5.63747 7.41533 5.94214 7.13797C6.2469 6.83927 6.60601 6.5938 7.01957 6.40178L6.85633 6.08164C6.48627 6.31644 6.13802 6.57247 5.81155 6.84994C5.48509 7.10596 5.15863 7.38333 4.83206 7.68213L4.93 7.90616ZM4.57089 7.10596C4.91915 6.84994 5.24561 6.5938 5.55038 6.33777C5.85505 6.06031 6.20341 5.80428 6.59516 5.56959L6.46458 5.31345C6.09452 5.54825 5.74626 5.80428 5.4198 6.08164C5.11503 6.33778 4.79941 6.61514 4.47295 6.91394L4.57089 7.10596ZM6.07272 10.1788C6.44278 9.88002 6.81284 9.60266 7.1828 9.34663C7.55286 9.06916 7.93376 8.80246 8.32552 8.54633C8.28203 8.525 8.24938 8.49299 8.22758 8.45032C8.22758 8.40765 8.21673 8.36498 8.19494 8.32231C7.84667 8.62101 7.47672 8.89848 7.08486 9.1545C6.6931 9.3893 6.32304 9.656 5.97478 9.9548L6.07272 10.1788ZM7.83583 7.68213C7.46577 7.9595 7.08486 8.21563 6.6931 8.45032C6.32304 8.68501 5.95309 8.95181 5.58303 9.25051L5.68097 9.41064C6.05103 9.13317 6.43193 8.87714 6.82369 8.64234C7.21544 8.40765 7.57466 8.13029 7.90112 7.81015L7.83583 7.68213ZM3.91786 5.47347C4.20083 5.17477 4.5056 4.88664 4.83206 4.60927C5.15863 4.33191 5.46329 4.04377 5.74626 3.74507L5.64832 3.48896C5.34355 3.78774 5.03889 4.08644 4.73412 4.38525C4.45115 4.68395 4.16818 4.99342 3.88522 5.31345L3.91786 5.47347ZM3.65669 4.67328L5.38715 2.9128L5.3545 2.72075C5.04974 2.99817 4.74497 3.28624 4.44031 3.58499C4.15734 3.88375 3.86352 4.18245 3.55875 4.48126L3.65669 4.67328ZM4.70148 1.31236H4.40766C4.10289 1.56843 3.83087 1.83517 3.5914 2.11259C3.35192 2.36866 3.09075 2.64606 2.80778 2.94482L2.90572 3.10485L4.70148 1.31236ZM11.917 2.8808C12.2435 2.71008 12.5591 2.55004 12.8639 2.40066C13.1903 2.25129 13.5168 2.10192 13.8434 1.95254L13.876 1.92054L13.8107 1.66447C13.5712 1.85652 13.2666 2.0379 12.8965 2.20861C12.5265 2.35799 12.2 2.51803 11.917 2.68875V2.8808ZM8.84796 11.011C8.5432 11.203 8.23853 11.4165 7.93377 11.6512C7.6291 11.8647 7.32433 12.0567 7.01957 12.2274L7.05221 12.3234C7.31349 12.1527 7.56371 11.9927 7.80318 11.8433C8.06435 11.6939 8.34732 11.5765 8.65209 11.4912L8.84796 11.011ZM2.38338 2.17661L2.54661 2.33664C2.82958 1.99522 3.1452 1.65379 3.49346 1.31236H3.29758L2.38338 2.17661ZM11.7211 2.11259C11.7428 2.11259 11.8081 2.08057 11.917 2.01656C12.0476 1.95254 12.1782 1.88852 12.3088 1.8245C12.4612 1.73915 12.6027 1.66447 12.7333 1.60045C12.8639 1.51508 12.951 1.46173 12.9945 1.4404H12.8312L12.5699 1.47241C12.3959 1.5791 12.2326 1.67513 12.0803 1.76049C11.9497 1.84584 11.8081 1.94187 11.6559 2.04857L11.7211 2.11259ZM2.22015 1.34437C2.11126 1.45107 1.99163 1.56843 1.86094 1.69647C1.73036 1.80317 1.61062 1.92054 1.50183 2.04857H1.66506C1.79565 1.92054 1.91539 1.7925 2.02428 1.66447C2.15486 1.53643 2.29629 1.41906 2.44868 1.31236L2.22015 1.34437ZM8.26023 12.2594C7.91197 12.4514 7.6073 12.6542 7.34613 12.8675L7.41142 12.9315C7.6291 12.7822 7.85763 12.6542 8.097 12.5475L8.26023 12.2594ZM6.59516 1.53643C6.52987 1.62178 6.46458 1.70714 6.39929 1.7925C6.334 1.85652 6.24691 1.90986 6.13801 1.95254C6.35569 1.90986 6.54072 1.80317 6.6931 1.63245L6.59516 1.53643ZM12.1782 4.12911L11.3293 4.60927L11.2966 4.67328L12.0803 4.28924L12.1782 4.12911ZM10.6111 6.46579V6.49779C10.6546 6.49779 10.7417 6.46579 10.8722 6.40178C11.0028 6.33777 11.0899 6.2951 11.1334 6.27377L11.1987 6.11365L10.6437 6.43379L10.6111 6.46579ZM12.5699 3.16887C12.4394 3.25424 12.3088 3.32892 12.1782 3.39294C12.0476 3.45696 11.9279 3.53164 11.8191 3.61695L12.5373 3.2649L12.5699 3.16887ZM10.2192 7.394C10.3063 7.35132 10.3934 7.30865 10.4805 7.26598C10.5675 7.20197 10.6546 7.13797 10.7417 7.07396L10.2519 7.32999L10.2192 7.394ZM11.6232 5.18544C11.4708 5.29212 11.2966 5.3988 11.1008 5.50547L11.6232 5.24945V5.18544ZM10.8069 1.95254L10.8722 1.88852L10.7743 1.92054L10.8069 1.95254Z" fill="#4B4646"/>
</svg>
